<svg width="100%" height="100%" viewBox="0 0 800 600" xmlns="http://www.w3.org/2000/svg">
  <rect width="100%" height="100%" fill="darkgreen"/>
  
  <!-- Organic camo blobs -->
  <path d="M100 150 C180 100, 250 180, 200 250 C150 300, 80 220, 100 150" fill="olive"/>
  <path d="M500 120 C580 80, 650 140, 620 230 C600 300, 520 240, 500 120" fill="brown"/>
  <path d="M250 460 C270 420, 360 440, 340 500 C310 540, 230 520, 250 460" fill="black"/>
  <path d="M580 380 C620 340, 710 390, 680 500 C650 570, 540 510, 580 380" fill="darkolivegreen"/>
</svg>
